<svg width="144" height="44" viewBox="0 0 144 44" fill="none" xmlns="http://www.w3.org/2000/svg">
<path d="M21.5048 11.9201C21.6696 11.912 21.8347 11.908 22 11.908C22.1654 11.908 22.3305 11.912 22.4952 11.9201L23.0195 1.24726C22.6803 1.23059 22.3404 1.22223 22 1.22223C21.6597 1.22223 21.3197 1.23059 20.9805 1.24726L21.5048 11.9201Z" fill="url(#paint0_linear_3_376)"/>
<path d="M19.5478 12.2104C19.8683 12.1302 20.1924 12.0656 20.5192 12.0172L18.9513 1.44712C18.2786 1.54691 17.6111 1.67966 16.9514 1.84491L19.5478 12.2104Z" fill="url(#paint1_linear_3_376)"/>
<path d="M23.4808 12.0172C23.8076 12.0656 24.1318 12.1302 24.4522 12.2104L27.0486 1.84491C26.3889 1.67967 25.7215 1.54691 25.0488 1.44712L23.4808 12.0172Z" fill="url(#paint2_linear_3_376)"/>
<path d="M18.1379 12.6761C18.2907 12.6129 18.4448 12.5535 18.6001 12.4979L15.0002 2.43682C14.6804 2.55124 14.3632 2.6736 14.0487 2.80384C13.7342 2.93409 13.4234 3.0719 13.1164 3.21711L17.6851 12.8769C17.8342 12.8064 17.9852 12.7394 18.1379 12.6761Z" fill="url(#paint3_linear_3_376)"/>
<path d="M25.3999 12.4979C25.5552 12.5535 25.7094 12.6129 25.8621 12.6761C26.0148 12.7394 26.1658 12.8064 26.3149 12.8769L30.8837 3.21712C30.5766 3.0719 30.2658 2.93409 29.9513 2.80384C29.6369 2.6736 29.3196 2.55124 28.9999 2.43682L25.3999 12.4979Z" fill="url(#paint4_linear_3_376)"/>
<path d="M15.9882 13.894C16.2535 13.6972 16.5283 13.5136 16.8117 13.3438L11.3181 4.17831C10.7348 4.52795 10.169 4.90601 9.62269 5.31114L15.9882 13.894Z" fill="url(#paint5_linear_3_376)"/>
<path d="M27.1884 13.3438C27.4717 13.5136 27.7466 13.6972 28.0119 13.894L34.3773 5.31114C33.8311 4.90602 33.2653 4.52795 32.6819 4.17832L27.1884 13.3438Z" fill="url(#paint6_linear_3_376)"/>
<path d="M14.8639 14.8639C14.9807 14.747 15.1004 14.633 15.2226 14.5223L8.04648 6.60469C7.79484 6.83279 7.54856 7.06725 7.3079 7.3079C7.06725 7.54856 6.83279 7.79484 6.60469 8.04648L14.5223 15.2226C14.633 15.1004 14.747 14.9807 14.8639 14.8639Z" fill="url(#paint7_linear_3_376)"/>
<path d="M28.7775 14.5223C28.8997 14.633 29.0193 14.747 29.1362 14.8639C29.2531 14.9807 29.367 15.1004 29.4778 15.2226L37.3953 8.04648C37.1672 7.79484 36.9328 7.54856 36.6921 7.3079C36.4515 7.06725 36.2052 6.83279 35.9535 6.60469L28.7775 14.5223Z" fill="url(#paint8_linear_3_376)"/>
<path d="M13.3438 16.8117C13.5136 16.5283 13.6972 16.2535 13.894 15.9882L5.31114 9.62269C4.90602 10.169 4.52795 10.7348 4.17832 11.3181L13.3438 16.8117Z" fill="url(#paint9_linear_3_376)"/>
<path d="M30.106 15.9882C30.3028 16.2535 30.4864 16.5283 30.6563 16.8117L39.8217 11.3181C39.4721 10.7348 39.094 10.169 38.6889 9.62269L30.106 15.9882Z" fill="url(#paint10_linear_3_376)"/>
<path d="M12.6761 18.1379C12.7394 17.9852 12.8064 17.8342 12.8769 17.6851L3.21712 13.1164C3.0719 13.4234 2.93409 13.7342 2.80384 14.0487C2.6736 14.3631 2.55124 14.6804 2.43682 15.0002L12.4979 18.6001C12.5535 18.4448 12.6129 18.2907 12.6761 18.1379Z" fill="url(#paint11_linear_3_376)"/>
<path d="M31.1231 17.6851C31.1937 17.8342 31.2606 17.9852 31.3239 18.1379C31.3871 18.2907 31.4466 18.4448 31.5022 18.6001L41.5632 15.0002C41.4488 14.6804 41.3265 14.3632 41.1962 14.0487C41.0659 13.7342 40.9281 13.4234 40.7829 13.1164L31.1231 17.6851Z" fill="url(#paint12_linear_3_376)"/>
<path d="M12.0172 20.5192C12.0656 20.1924 12.1302 19.8683 12.2104 19.5478L1.84491 16.9514C1.67967 17.6111 1.54691 18.2785 1.44712 18.9513L12.0172 20.5192Z" fill="url(#paint13_linear_3_376)"/>
<path d="M31.7896 19.5478C31.8699 19.8683 31.9344 20.1924 31.9829 20.5192L42.5529 18.9513C42.4531 18.2786 42.3204 17.6111 42.1551 16.9514L31.7896 19.5478Z" fill="url(#paint14_linear_3_376)"/>
<path d="M11.908 22C11.908 21.8347 11.912 21.6696 11.9201 21.5048L1.24726 20.9805C1.23059 21.3197 1.22223 21.6597 1.22223 22C1.22223 24.7286 1.75966 27.4305 2.80384 29.9513C3.84802 32.4722 5.37851 34.7627 7.3079 36.6921C9.23728 38.6215 11.5278 40.152 14.0487 41.1962C16.5696 42.2403 19.2714 42.7778 22 42.7778C24.7286 42.7778 27.4305 42.2403 29.9513 41.1962C32.4722 40.152 34.7627 38.6215 36.6921 36.6921C38.6215 34.7627 40.152 32.4722 41.1962 29.9513C42.2403 27.4305 42.7778 24.7286 42.7778 22C42.7778 21.6597 42.7694 21.3197 42.7528 20.9805L32.0799 21.5048C32.088 21.6696 32.0921 21.8347 32.0921 22C32.0921 23.3253 31.831 24.6376 31.3239 25.8621C30.8167 27.0865 30.0733 28.199 29.1362 29.1362C28.199 30.0733 27.0865 30.8167 25.8621 31.3239C24.6376 31.831 23.3253 32.0921 22 32.0921C20.6747 32.0921 19.3624 31.831 18.1379 31.3239C16.9135 30.8167 15.801 30.0733 14.8639 29.1362C13.9267 28.199 13.1834 27.0865 12.6761 25.8621C12.169 24.6376 11.908 23.3253 11.908 22Z" fill="url(#paint15_linear_3_376)"/>
<path d="M22.0014 11.9076C21.8361 11.9076 21.6709 11.9116 21.5062 11.9198L21.3071 7.86667C21.7674 7.66812 22.2394 7.49138 22.7217 7.3378L22.4966 11.9198C22.3318 11.9116 22.1667 11.9076 22.0014 11.9076Z" fill="#5165E1"/>
<path d="M24.2353 6.93998L23.4822 12.0168C23.809 12.0653 24.1332 12.1298 24.4536 12.2101L25.8355 6.69328C25.2933 6.74785 24.7594 6.8306 24.2353 6.93998Z" fill="#5165E1"/>
<path d="M27.5059 6.61566L25.4013 12.4975C25.5566 12.5531 25.7107 12.6125 25.8634 12.6758C26.0162 12.7391 26.1672 12.806 26.3163 12.8766L29.2266 6.7232C28.6619 6.65616 28.0877 6.61977 27.5059 6.61566Z" fill="#5165E1"/>
<path d="M30.9719 7.03329L27.1898 13.3434C27.4731 13.5132 27.7479 13.6969 28.0132 13.8937L32.7115 7.55874C32.1465 7.35064 31.5659 7.17472 30.9719 7.03329Z" fill="#5165E1"/>
<path d="M34.4129 8.30568L28.7788 14.5219C28.9011 14.6327 29.0206 14.7466 29.1376 14.8635C29.2545 14.9804 29.3683 15.1 29.4791 15.2222L36.0422 9.27379C35.5211 8.91904 34.9771 8.59541 34.4129 8.30568Z" fill="#5165E1"/>
<path d="M37.5654 10.4566L30.1074 15.9878C30.3042 16.2531 30.4878 16.528 30.6577 16.8113L38.949 11.8416C38.5175 11.3513 38.0553 10.8886 37.5654 10.4566Z" fill="#5165E1"/>
<path d="M40.1605 13.4111L31.1245 17.6847C31.1951 17.8339 31.262 17.9848 31.3252 18.1376C31.3885 18.2903 31.448 18.4445 31.5035 18.5998L41.1696 15.1412C40.8702 14.5411 40.5328 13.9633 40.1605 13.4111Z" fill="#5165E1"/>
<path d="M41.9495 17.0029L31.791 19.5475C31.8713 19.8679 31.9358 20.1921 31.9843 20.5189L42.4793 18.962C42.3452 18.2923 42.1676 17.6382 41.9495 17.0029Z" fill="#5165E1"/>
<path d="M42.7459 20.9805L32.0813 21.5045C32.0894 21.6692 32.0934 21.8343 32.0934 21.9997C32.0934 23.325 31.8324 24.6373 31.3252 25.8617C30.8181 27.0862 30.0747 28.1987 29.1376 29.1358C28.2004 30.073 27.0879 30.8163 25.8634 31.3235C24.639 31.8307 23.3267 32.0917 22.0014 32.0917C20.6761 32.0917 19.3637 31.8307 18.1393 31.3235C16.9149 30.8163 15.8023 30.073 14.8652 29.1358C13.9281 28.1987 13.1847 27.0862 12.6775 25.8617C12.4769 25.3773 12.3148 24.8792 12.1921 24.372C13.3329 31.7422 19.705 37.3841 27.3947 37.3841C35.8913 37.3841 42.7791 30.4963 42.7791 21.9997C42.7791 21.6572 42.768 21.3174 42.7459 20.9805Z" fill="#5165E1"/>
<path d="M12.1921 19.6275C12.1985 19.6008 12.2051 19.5742 12.2118 19.5475L12.205 19.5458C12.2006 19.573 12.1963 19.6002 12.1921 19.6275Z" fill="#5165E1"/>
<path d="M12.3957 18.5627L12.4993 18.5997C12.5549 18.4445 12.6143 18.2903 12.6775 18.1376C12.7408 17.9848 12.8077 17.8339 12.8783 17.6847L12.6549 17.5791C12.558 17.9026 12.4715 18.2306 12.3957 18.5627Z" fill="#5165E1"/>
<path d="M12.9861 16.5961L13.3452 16.8113C13.515 16.528 13.6986 16.2531 13.8954 15.9878L13.3934 15.6155C13.2467 15.9366 13.1108 16.2636 12.9861 16.5961Z" fill="#5165E1"/>
<path d="M13.8815 14.6402L14.5237 15.2222C14.6344 15.1 14.7483 14.9804 14.8652 14.8635C14.9821 14.7466 15.1018 14.6327 15.224 14.5219L14.4556 13.6741C14.2529 13.9884 14.0613 14.3107 13.8815 14.6402Z" fill="#5165E1"/>
<path d="M15.1211 12.7226L15.9896 13.8937C16.2549 13.6969 16.5297 13.5132 16.8131 13.3434L15.8836 11.7928C15.6177 12.0925 15.3633 12.4027 15.1211 12.7226Z" fill="#5165E1"/>
<path d="M16.7487 10.8937L17.6865 12.8766C17.8356 12.806 17.9866 12.7391 18.1393 12.6758C18.2921 12.6125 18.4462 12.5531 18.6015 12.4975L17.721 10.0367C17.3849 10.3087 17.0605 10.5947 16.7487 10.8937Z" fill="#5165E1"/>
<path d="M18.8041 9.23528L19.5492 12.2101C19.8697 12.1298 20.1938 12.0653 20.5206 12.0168L19.9998 8.50584C19.5895 8.73116 19.1905 8.97468 18.8041 9.23528Z" fill="#5165E1"/>
<path d="M69.8 15.54V30H67.1V23.68H60.31V30H57.61V15.54H60.31V21.76H67.1V15.54H69.8ZM78.9277 23.69C78.9277 23.37 78.881 23.07 78.7877 22.79C78.701 22.5033 78.5677 22.2533 78.3877 22.04C78.2077 21.8267 77.9777 21.66 77.6977 21.54C77.4243 21.4133 77.1043 21.35 76.7377 21.35C76.0243 21.35 75.461 21.5533 75.0477 21.96C74.641 22.3667 74.381 22.9433 74.2677 23.69H78.9277ZM74.2177 25.18C74.2577 25.7067 74.351 26.1633 74.4977 26.55C74.6443 26.93 74.8377 27.2467 75.0777 27.5C75.3177 27.7467 75.601 27.9333 75.9277 28.06C76.261 28.18 76.6277 28.24 77.0277 28.24C77.4277 28.24 77.771 28.1933 78.0577 28.1C78.351 28.0067 78.6043 27.9033 78.8177 27.79C79.0377 27.6767 79.2277 27.5733 79.3877 27.48C79.5543 27.3867 79.7143 27.34 79.8677 27.34C80.0743 27.34 80.2277 27.4167 80.3277 27.57L81.0377 28.47C80.7643 28.79 80.4577 29.06 80.1177 29.28C79.7777 29.4933 79.421 29.6667 79.0477 29.8C78.681 29.9267 78.3043 30.0167 77.9177 30.07C77.5377 30.1233 77.1677 30.15 76.8077 30.15C76.0943 30.15 75.431 30.0333 74.8177 29.8C74.2043 29.56 73.671 29.21 73.2177 28.75C72.7643 28.2833 72.4077 27.71 72.1477 27.03C71.8877 26.3433 71.7577 25.55 71.7577 24.65C71.7577 23.95 71.871 23.2933 72.0977 22.68C72.3243 22.06 72.6477 21.5233 73.0677 21.07C73.4943 20.61 74.011 20.2467 74.6177 19.98C75.231 19.7133 75.921 19.58 76.6877 19.58C77.3343 19.58 77.931 19.6833 78.4777 19.89C79.0243 20.0967 79.4943 20.4 79.8877 20.8C80.281 21.1933 80.5877 21.68 80.8077 22.26C81.0343 22.8333 81.1477 23.49 81.1477 24.23C81.1477 24.6033 81.1077 24.8567 81.0277 24.99C80.9477 25.1167 80.7943 25.18 80.5677 25.18H74.2177ZM85.5013 15.14V30H83.0312V15.14H85.5013ZM90.4322 27.34C90.7122 27.68 91.0155 27.92 91.3422 28.06C91.6755 28.2 92.0355 28.27 92.4222 28.27C92.7955 28.27 93.1322 28.2 93.4322 28.06C93.7322 27.92 93.9855 27.7067 94.1922 27.42C94.4055 27.1333 94.5689 26.7733 94.6822 26.34C94.7955 25.9 94.8522 25.3833 94.8522 24.79C94.8522 24.19 94.8022 23.6833 94.7022 23.27C94.6089 22.85 94.4722 22.51 94.2922 22.25C94.1122 21.99 93.8922 21.8 93.6322 21.68C93.3789 21.56 93.0889 21.5 92.7622 21.5C92.2489 21.5 91.8122 21.61 91.4522 21.83C91.0922 22.0433 90.7522 22.3467 90.4322 22.74V27.34ZM90.3022 21.14C90.7222 20.6667 91.1989 20.2833 91.7322 19.99C92.2655 19.6967 92.8922 19.55 93.6122 19.55C94.1722 19.55 94.6822 19.6667 95.1422 19.9C95.6089 20.1333 96.0089 20.4733 96.3422 20.92C96.6822 21.36 96.9422 21.9067 97.1222 22.56C97.3089 23.2067 97.4022 23.95 97.4022 24.79C97.4022 25.5567 97.2989 26.2667 97.0922 26.92C96.8855 27.5733 96.5889 28.14 96.2022 28.62C95.8222 29.1 95.3589 29.4767 94.8122 29.75C94.2722 30.0167 93.6655 30.15 92.9922 30.15C92.4189 30.15 91.9289 30.0633 91.5222 29.89C91.1155 29.71 90.7522 29.4633 90.4322 29.15V33.35H87.9622V19.74H89.4722C89.7922 19.74 90.0022 19.89 90.1022 20.19L90.3022 21.14ZM112.266 22.77C112.266 23.83 112.09 24.8033 111.736 25.69C111.383 26.5767 110.886 27.34 110.246 27.98C109.606 28.62 108.836 29.1167 107.936 29.47C107.036 29.8233 106.036 30 104.936 30H99.4264V15.54H104.936C106.036 15.54 107.036 15.72 107.936 16.08C108.836 16.4333 109.606 16.93 110.246 17.57C110.886 18.2033 111.383 18.9633 111.736 19.85C112.09 20.7367 112.266 21.71 112.266 22.77ZM109.506 22.77C109.506 21.9767 109.4 21.2667 109.186 20.64C108.98 20.0067 108.676 19.4733 108.276 19.04C107.883 18.6 107.403 18.2633 106.836 18.03C106.276 17.7967 105.643 17.68 104.936 17.68H102.126V27.86H104.936C105.643 27.86 106.276 27.7433 106.836 27.51C107.403 27.2767 107.883 26.9433 108.276 26.51C108.676 26.07 108.98 25.5367 109.186 24.91C109.4 24.2767 109.506 23.5633 109.506 22.77ZM120.725 23.69C120.725 23.37 120.678 23.07 120.585 22.79C120.498 22.5033 120.365 22.2533 120.185 22.04C120.005 21.8267 119.775 21.66 119.495 21.54C119.221 21.4133 118.901 21.35 118.535 21.35C117.821 21.35 117.258 21.5533 116.845 21.96C116.438 22.3667 116.178 22.9433 116.065 23.69H120.725ZM116.015 25.18C116.055 25.7067 116.148 26.1633 116.295 26.55C116.441 26.93 116.635 27.2467 116.875 27.5C117.115 27.7467 117.398 27.9333 117.725 28.06C118.058 28.18 118.425 28.24 118.825 28.24C119.225 28.24 119.568 28.1933 119.855 28.1C120.148 28.0067 120.401 27.9033 120.615 27.79C120.835 27.6767 121.025 27.5733 121.185 27.48C121.351 27.3867 121.511 27.34 121.665 27.34C121.871 27.34 122.025 27.4167 122.125 27.57L122.835 28.47C122.561 28.79 122.255 29.06 121.915 29.28C121.575 29.4933 121.218 29.6667 120.845 29.8C120.478 29.9267 120.101 30.0167 119.715 30.07C119.335 30.1233 118.965 30.15 118.605 30.15C117.891 30.15 117.228 30.0333 116.615 29.8C116.001 29.56 115.468 29.21 115.015 28.75C114.561 28.2833 114.205 27.71 113.945 27.03C113.685 26.3433 113.555 25.55 113.555 24.65C113.555 23.95 113.668 23.2933 113.895 22.68C114.121 22.06 114.445 21.5233 114.865 21.07C115.291 20.61 115.808 20.2467 116.415 19.98C117.028 19.7133 117.718 19.58 118.485 19.58C119.131 19.58 119.728 19.6833 120.275 19.89C120.821 20.0967 121.291 20.4 121.685 20.8C122.078 21.1933 122.385 21.68 122.605 22.26C122.831 22.8333 122.945 23.49 122.945 24.23C122.945 24.6033 122.905 24.8567 122.825 24.99C122.745 25.1167 122.591 25.18 122.365 25.18H116.015ZM131.058 21.74C130.991 21.8467 130.921 21.9233 130.848 21.97C130.775 22.01 130.681 22.03 130.568 22.03C130.448 22.03 130.318 21.9967 130.178 21.93C130.045 21.8633 129.888 21.79 129.708 21.71C129.528 21.6233 129.321 21.5467 129.088 21.48C128.861 21.4133 128.591 21.38 128.278 21.38C127.791 21.38 127.408 21.4833 127.128 21.69C126.855 21.8967 126.718 22.1667 126.718 22.5C126.718 22.72 126.788 22.9067 126.928 23.06C127.075 23.2067 127.265 23.3367 127.498 23.45C127.738 23.5633 128.008 23.6667 128.308 23.76C128.608 23.8467 128.911 23.9433 129.218 24.05C129.531 24.1567 129.838 24.28 130.138 24.42C130.438 24.5533 130.705 24.7267 130.938 24.94C131.178 25.1467 131.368 25.3967 131.508 25.69C131.655 25.9833 131.728 26.3367 131.728 26.75C131.728 27.2433 131.638 27.7 131.458 28.12C131.285 28.5333 131.025 28.8933 130.678 29.2C130.331 29.5 129.901 29.7367 129.388 29.91C128.881 30.0767 128.295 30.16 127.628 30.16C127.275 30.16 126.928 30.1267 126.588 30.06C126.255 30 125.931 29.9133 125.618 29.8C125.311 29.6867 125.025 29.5533 124.758 29.4C124.498 29.2467 124.268 29.08 124.068 28.9L124.638 27.96C124.711 27.8467 124.798 27.76 124.898 27.7C124.998 27.64 125.125 27.61 125.278 27.61C125.431 27.61 125.575 27.6533 125.708 27.74C125.848 27.8267 126.008 27.92 126.188 28.02C126.368 28.12 126.578 28.2133 126.818 28.3C127.065 28.3867 127.375 28.43 127.748 28.43C128.041 28.43 128.291 28.3967 128.498 28.33C128.711 28.2567 128.885 28.1633 129.018 28.05C129.158 27.9367 129.258 27.8067 129.318 27.66C129.385 27.5067 129.418 27.35 129.418 27.19C129.418 26.95 129.345 26.7533 129.198 26.6C129.058 26.4467 128.868 26.3133 128.628 26.2C128.395 26.0867 128.125 25.9867 127.818 25.9C127.518 25.8067 127.208 25.7067 126.888 25.6C126.575 25.4933 126.265 25.37 125.958 25.23C125.658 25.0833 125.388 24.9 125.148 24.68C124.915 24.46 124.725 24.19 124.578 23.87C124.438 23.55 124.368 23.1633 124.368 22.71C124.368 22.29 124.451 21.89 124.618 21.51C124.785 21.13 125.028 20.8 125.348 20.52C125.675 20.2333 126.078 20.0067 126.558 19.84C127.045 19.6667 127.605 19.58 128.238 19.58C128.945 19.58 129.588 19.6967 130.168 19.93C130.748 20.1633 131.231 20.47 131.618 20.85L131.058 21.74ZM136.057 15.14V23.65H136.517C136.684 23.65 136.814 23.63 136.907 23.59C137.007 23.5433 137.107 23.4533 137.207 23.32L139.757 20.17C139.864 20.03 139.981 19.9233 140.107 19.85C140.241 19.7767 140.411 19.74 140.617 19.74H142.877L139.687 23.55C139.461 23.85 139.214 24.08 138.947 24.24C139.087 24.34 139.211 24.4567 139.317 24.59C139.431 24.7233 139.537 24.8667 139.637 25.02L143.057 30H140.827C140.634 30 140.467 29.97 140.327 29.91C140.187 29.8433 140.071 29.7267 139.977 29.56L137.357 25.67C137.264 25.5167 137.167 25.4167 137.067 25.37C136.967 25.3233 136.817 25.3 136.617 25.3H136.057V30H133.587V15.14H136.057Z" fill="#F9FAFA"/>
<defs>
<linearGradient id="paint0_linear_3_376" x1="-4.80333" y1="-3.55667" x2="40.3884" y2="42.7778" gradientUnits="userSpaceOnUse">
<stop offset="0.0363151" stop-color="#3B53F1"/>
<stop offset="0.524591" stop-color="#6D80FD"/>
<stop offset="1" stop-color="#C9D0FE"/>
</linearGradient>
<linearGradient id="paint1_linear_3_376" x1="-4.80333" y1="-3.55667" x2="40.3884" y2="42.7778" gradientUnits="userSpaceOnUse">
<stop offset="0.0363151" stop-color="#3B53F1"/>
<stop offset="0.524591" stop-color="#6D80FD"/>
<stop offset="1" stop-color="#C9D0FE"/>
</linearGradient>
<linearGradient id="paint2_linear_3_376" x1="-4.80333" y1="-3.55667" x2="40.3884" y2="42.7778" gradientUnits="userSpaceOnUse">
<stop offset="0.0363151" stop-color="#3B53F1"/>
<stop offset="0.524591" stop-color="#6D80FD"/>
<stop offset="1" stop-color="#C9D0FE"/>
</linearGradient>
<linearGradient id="paint3_linear_3_376" x1="-4.80333" y1="-3.55667" x2="40.3884" y2="42.7778" gradientUnits="userSpaceOnUse">
<stop offset="0.0363151" stop-color="#3B53F1"/>
<stop offset="0.524591" stop-color="#6D80FD"/>
<stop offset="1" stop-color="#C9D0FE"/>
</linearGradient>
<linearGradient id="paint4_linear_3_376" x1="-4.80333" y1="-3.55667" x2="40.3884" y2="42.7778" gradientUnits="userSpaceOnUse">
<stop offset="0.0363151" stop-color="#3B53F1"/>
<stop offset="0.524591" stop-color="#6D80FD"/>
<stop offset="1" stop-color="#C9D0FE"/>
</linearGradient>
<linearGradient id="paint5_linear_3_376" x1="-4.80333" y1="-3.55667" x2="40.3884" y2="42.7778" gradientUnits="userSpaceOnUse">
<stop offset="0.0363151" stop-color="#3B53F1"/>
<stop offset="0.524591" stop-color="#6D80FD"/>
<stop offset="1" stop-color="#C9D0FE"/>
</linearGradient>
<linearGradient id="paint6_linear_3_376" x1="-4.80333" y1="-3.55667" x2="40.3884" y2="42.7778" gradientUnits="userSpaceOnUse">
<stop offset="0.0363151" stop-color="#3B53F1"/>
<stop offset="0.524591" stop-color="#6D80FD"/>
<stop offset="1" stop-color="#C9D0FE"/>
</linearGradient>
<linearGradient id="paint7_linear_3_376" x1="-4.80333" y1="-3.55667" x2="40.3884" y2="42.7778" gradientUnits="userSpaceOnUse">
<stop offset="0.0363151" stop-color="#3B53F1"/>
<stop offset="0.524591" stop-color="#6D80FD"/>
<stop offset="1" stop-color="#C9D0FE"/>
</linearGradient>
<linearGradient id="paint8_linear_3_376" x1="-4.80333" y1="-3.55667" x2="40.3884" y2="42.7778" gradientUnits="userSpaceOnUse">
<stop offset="0.0363151" stop-color="#3B53F1"/>
<stop offset="0.524591" stop-color="#6D80FD"/>
<stop offset="1" stop-color="#C9D0FE"/>
</linearGradient>
<linearGradient id="paint9_linear_3_376" x1="-4.80333" y1="-3.55667" x2="40.3884" y2="42.7778" gradientUnits="userSpaceOnUse">
<stop offset="0.0363151" stop-color="#3B53F1"/>
<stop offset="0.524591" stop-color="#6D80FD"/>
<stop offset="1" stop-color="#C9D0FE"/>
</linearGradient>
<linearGradient id="paint10_linear_3_376" x1="-4.80333" y1="-3.55667" x2="40.3884" y2="42.7778" gradientUnits="userSpaceOnUse">
<stop offset="0.0363151" stop-color="#3B53F1"/>
<stop offset="0.524591" stop-color="#6D80FD"/>
<stop offset="1" stop-color="#C9D0FE"/>
</linearGradient>
<linearGradient id="paint11_linear_3_376" x1="-4.80333" y1="-3.55667" x2="40.3884" y2="42.7778" gradientUnits="userSpaceOnUse">
<stop offset="0.0363151" stop-color="#3B53F1"/>
<stop offset="0.524591" stop-color="#6D80FD"/>
<stop offset="1" stop-color="#C9D0FE"/>
</linearGradient>
<linearGradient id="paint12_linear_3_376" x1="-4.80333" y1="-3.55667" x2="40.3884" y2="42.7778" gradientUnits="userSpaceOnUse">
<stop offset="0.0363151" stop-color="#3B53F1"/>
<stop offset="0.524591" stop-color="#6D80FD"/>
<stop offset="1" stop-color="#C9D0FE"/>
</linearGradient>
<linearGradient id="paint13_linear_3_376" x1="-4.80333" y1="-3.55667" x2="40.3884" y2="42.7778" gradientUnits="userSpaceOnUse">
<stop offset="0.0363151" stop-color="#3B53F1"/>
<stop offset="0.524591" stop-color="#6D80FD"/>
<stop offset="1" stop-color="#C9D0FE"/>
</linearGradient>
<linearGradient id="paint14_linear_3_376" x1="-4.80333" y1="-3.55667" x2="40.3884" y2="42.7778" gradientUnits="userSpaceOnUse">
<stop offset="0.0363151" stop-color="#3B53F1"/>
<stop offset="0.524591" stop-color="#6D80FD"/>
<stop offset="1" stop-color="#C9D0FE"/>
</linearGradient>
<linearGradient id="paint15_linear_3_376" x1="-4.80333" y1="-3.55667" x2="40.3884" y2="42.7778" gradientUnits="userSpaceOnUse">
<stop offset="0.0363151" stop-color="#3B53F1"/>
<stop offset="0.524591" stop-color="#6D80FD"/>
<stop offset="1" stop-color="#C9D0FE"/>
</linearGradient>
</defs>
</svg>
